<svg id="Calque_2" data-name="Calque 2" xmlns="http://www.w3.org/2000/svg" viewBox="0 0 2000 22.33"><defs><style>.cls-1{fill:#0a433f;stroke-width:0}</style></defs><g id="Calque_1-2" data-name="Calque 1"><path class="cls-1" d="M69.13 8.94h4.47c-1.52-.17-3.03-.34-4.55-.5.03.17.05.34.08.5zm23.96 0h-19.5l19.48 2.16c0-.72.01-1.44.02-2.16zM98.86.31V0H66.19c0 .1 0 .21.01.31h32.65zm46.45-.06v-.2h-30.06v.2h30.06zM93.76 8.5l14.07 2.79c0-.49.02-.97.02-1.46L93.77 7.28c0 .41 0 .81-.01 1.22zM165.84.28c0-.07 0-.14-.01-.21h-12.57v.21h12.58zm170.18 3.59h-10.59v.46h10.64c-.02-.15-.03-.31-.05-.46zm-48.14 3.12h-9.97v.43h9.97v-.43zM211.3 4.97h-8.24v.32h8.24v-.32zm110.33-1.92h-7.47v.37h7.47v-.37zM130.91 5.22h7.36v-.21h-7.36v.21zm-66.34 3h-3.33c-.01.22-.03.43-.04.65h3.36c0-.22 0-.43.01-.65zm504.56.72h4.47c-1.52-.17-3.03-.34-4.55-.5.03.17.05.34.08.5zm23.96 0h-19.5l19.48 2.16c0-.72.01-1.44.02-2.16zm5.77-8.63V0h-32.67c0 .1 0 .21.01.31h32.65zm46.45-.06v-.2h-30.06v.2h30.06zM593.76 8.5l14.07 2.79c0-.49.02-.97.02-1.46l-14.08-2.55c0 .41 0 .81-.01 1.22zM665.84.28c0-.07 0-.14-.01-.21h-12.57v.21h12.58zm170.18 3.59h-10.59v.46h10.64c-.02-.15-.03-.31-.05-.46zm-48.14 3.12h-9.97v.43h9.97v-.43zM711.3 4.97h-8.23v.32h8.24v-.32zm110.33-1.92h-7.47v.37h7.47v-.37zM630.91 5.22h7.36v-.21h-7.36v.21zm-66.34 3h-3.33c-.01.22-.03.43-.04.65h3.36c0-.22 0-.43.01-.65zm1366.38.21c-1.52.17-3.03.34-4.55.5h4.47c.03-.17.05-.34.08-.5zm-24.03 2.67l19.48-2.16h-19.5c0 .72.01 1.44.02 2.16zM1933.81 0h-32.67v.31h32.65c0-.1 0-.21.01-.31zm-49.06.05h-30.06v.2h30.06v-.2zm21.49 8.45c0-.41 0-.81-.01-1.22l-14.08 2.55c0 .49.02.97.02 1.46l14.07-2.79zm-59.5-8.43h-12.57c0 .07 0 .14-.01.21h12.58V.07zm-172.17 3.8h-10.59c-.02.15-.03.31-.05.46h10.64v-.46zm47.51 3.55v-.43h-9.97v.43h9.97zm74.85-2.12v-.32h-8.23v.32h8.24zm-111.09-1.88v-.37h-7.47v.37h7.47zm183.25 1.8v-.21h-7.36v.21h7.36zm69.71 3.66c-.01-.22-.03-.43-.04-.65h-3.33c0 .22 0 .43.01.65h3.36z"/><path class="cls-1" d="M1989.98 10.98c-2.18-.18-4.37.48-6.55.71-.8.08-1.6.01-2.43-.72l1.48-1.01c-.44-.07-.64-.1-.84-.13-2.37-.38-4.74-.83-7.1-1.11-3.1-.36-6.21-.72-9.32-.75-.81 0-1.62 1.22-2.44 1.84-.3.23-.61.5-.92.52-8.54.56-17.07 1.09-25.61 1.62-3.71.23-7.41.47-11.12.7h-55.77v-.37c2.5-.53 5.01-1.3 7.51-1.52 2.13-.19 4.27.62 6.4.31 1.68-.25 3.34-1.54 5.01-2.36-.03-.69-.05-1.39-.08-2.08-1.01.42-2.02 1.11-3.04 1.18-1.22.09-2.44-.36-3.67-.57-.37-.06-.86-.63-1.1-.1-2.29 5.16-4.85 1.22-7.32 2 .32-.38.63-.76.95-1.15l-.03-.71-9.55 2.94-.05-1.28c1.41-.57 2.82-1.15 4.23-1.72l-.03-.94c-5.09 1.41-10.17 2.83-15.26 4.24l-.06-1.56 5.04-1.71v-.72c-.54 0-1.08-.08-1.62.01-4.42.72-8.84 1.63-13.27 2.13-2.31.26-4.63-.42-6.95-.29-4.15.23-8.3 1.2-12.45 1.06-7.36-.25-14.72-1.45-22.08-1.63-10.73-.26-21.47.03-32.2.14-.78 0-1.55.41-2.32 1.63h5.28l.02 1.09c-.77.27-1.54.79-2.31.77-9.39-.19-18.78-.74-28.17-.6-6.25.09-12.5 1.1-18.75 1.79h-47.98c-2.53-3-4.91-1.38-7.37-.98-2.87.47-5.75.78-8.62.98h-15.13c-.98-.06-1.97-.13-2.95-.21-1.54-.13-3.08-.02-4.62-.44 2.34-.64 4.69-1.29 7.03-1.93l-.03-1.86c-4.65 2.22-9.3 3.7-14 4.44h-13.66c-.63-.1-1.27-.21-1.9-.34 2.03-.93 3.7-1.7 5.36-2.47-.02-.5-.05-1.01-.07-1.51-3.12 1.28-6.25 2.6-9.38 3.83-.58.23-1.18.37-1.75.09-.26-.13-.47-1.37-.9-2.76-1.59.62-3.55 2.12-5.49 1.99-6.44-.42-12.87-1.53-19.31-2.17-2.07-.21-4.14.45-6.21.33-10.78-.67-6.98 4.03-17.76 3-2.65-.25-5.29-2.6-7.94-2.82-6.07-.49-12.14-.16-18.21-.39-1.86-.07-3.72-1.17-5.58-1.28-4.15-.23-8.31-.13-12.46-.16 0 0-5.59 2.02-8.65 3.73-3.06 1.7-6.63.5-7.74-.94-1.11-1.45-3.11-1.96-3.11-1.96s1.4.85 1.91 1.79c.51.93-.53 3.1-.55 3.14-.45-.08-.91-.28-1.38-.7l1.48-1.01c-.44-.07-.64-.1-.84-.13-2.37-.38-4.74-.83-7.1-1.11-3.1-.36-5.39 1.48-8.5 1.45-.81 0 1.33 1.3-8.17-.17-.38-.06-9.78-1.78-10.09-1.76-8.54.56-17.07 1.09-25.61 1.62-3.71.23-7.41.47-11.12.7h-55.77v-.37c2.5-.53 5.01-1.3 7.51-1.52 2.13-.19 4.27.62 6.4.31 1.68-.25 3.34-1.54 5.01-2.36-.03-.69-.05-1.39-.08-2.08-1.01.42-2.02 1.11-3.04 1.18-1.22.09-2.44-.36-3.67-.57-.37-.06-.86-.63-1.1-.1-2.29 5.16-4.85 1.22-7.32 2 .32-.38.63-.76.95-1.15l-.03-.71-9.55 2.94c-.02-.43-.03-.85-.05-1.28 1.41-.57 2.82-1.15 4.23-1.72l-.03-.94c-5.09 1.41-10.17 2.83-15.26 4.24l-.06-1.56 5.04-1.71V6.5c-.54 0-1.08-.08-1.62.01-4.42.72-8.84 1.63-13.27 2.13-2.31.26-4.63-.42-6.95-.29-4.15.23-8.3 1.2-12.45 1.06-7.36-.25-14.72-1.45-22.08-1.63-10.73-.26-21.47.03-32.2.14-.78 0-1.55.41-2.32 1.63h5.28l.02 1.09c-.77.27-1.54.79-2.31.77-9.39-.19-18.78-.74-28.17-.6-6.25.09-12.5 1.1-18.75 1.79h-47.98c-2.53-3-4.91-1.38-7.37-.98-2.87.47-5.75.78-8.62.98h-15.13c-.98-.06-1.97-.13-2.95-.21-1.54-.13-3.08-.02-4.62-.44 2.34-.64 4.69-1.29 7.03-1.93 0-.62-.02-1.24-.03-1.86-4.65 2.22-9.3 3.7-14 4.44h-13.66c-.63-.1-1.27-.21-1.9-.34 2.03-.93 3.7-1.7 5.36-2.47-.02-.5-.05-1.01-.07-1.51-3.12 1.28-6.25 2.6-9.37 3.83-.58.23-1.18.37-1.75.09-.26-.13-.47-1.37-.9-2.76-1.59.62-3.55 2.12-5.49 1.99-6.44-.42-12.87-1.53-19.31-2.17-2.07-.21-4.14.45-6.21.33-10.78-.67-16.65 3.01-27.43 1.98-2.65-.25-5.29-2.6-7.94-2.82-6.07-.49-12.14-.16-18.21-.39-1.86-.07-3.72-1.17-5.58-1.28-4.15-.23-8.31-.13-12.46-.16-4.15.03-8.31-.07-12.46.16-1.86.1-3.72 1.21-5.58 1.28-6.07.23-12.14-.1-18.21.39-2.65.22-5.29 2.57-7.94 2.82-10.78 1.03-26.47-2.65-37.26-1.98-2.07.13-4.14-.53-6.21-.33-6.44.64-12.87 1.74-19.31 2.17-1.95.13-3.9-1.38-5.49-1.99-.43 1.39-.64 2.63-.9 2.76-.57.28-1.17.14-1.75-.09-3.13-1.23-6.25-2.55-9.37-3.83-.02.5-.05 1.01-.07 1.51 1.67.77 3.33 1.53 5.36 2.47-.64.13-1.27.24-1.9.34h-13.66c-4.7-.73-9.35-2.22-14-4.44 0 .62-.02 1.24-.03 1.86 2.34.64 4.69 1.29 7.03 1.93-1.55.42-3.09.32-4.62.44-.98.08-1.97.15-2.95.21h-15.13c-2.88-.2-5.75-.51-8.62-.98-2.46-.4-4.84-2.02-7.37.98h-47.98c-6.25-.69-12.5-1.7-18.75-1.79-9.39-.14-18.78.41-28.17.6-.77.02-1.54-.5-2.31-.77l.02-1.09h5.28c-.76-1.22-1.54-1.62-2.32-1.63-10.73-.1-21.47-.39-32.2-.14-7.36.18-14.72 1.38-22.08 1.63-4.15.14-8.3-.83-12.45-1.06-2.32-.13-4.64.55-6.95.29-4.43-.5-8.85-1.41-13.27-2.13-.54-.09-1.08-.01-1.62-.01v.72l5.04 1.71-.06 1.56c-5.09-1.41-10.17-2.83-15.26-4.24l-.03.94c1.41.57 2.82 1.15 4.23 1.72-.02.43-.03.85-.05 1.28l-9.55-2.94-.03.71c.31.38.63.76.95 1.15-2.47-.78-5.04 3.15-7.32-2-.23-.53-.72.04-1.1.1-1.22.21-2.45.65-3.67.57-1.01-.07-2.02-.76-3.04-1.18-.03.69-.05 1.39-.08 2.08 1.67.83 3.33 2.12 5.01 2.36 2.13.31 4.27-.5 6.4-.31 2.51.22 5.01.99 7.51 1.52v.37H574.8c-3.71-.23-7.41-.47-11.12-.7-8.54-.53-14.84 2.56-23.38 2-.31-.02-.62-.29-.92-.52-.81-.62-1.63-1.85-2.44-1.84-3.11.03-6.21.39-9.32.75-2.37.27-4.74.73-7.1 1.11l-.84.13c.65.45 1.07.73 1.48 1.01-.47.41-.92.61-1.38.7-.02-.04-1.05-2.22-.55-3.14.51-.94 1.91-1.79 1.91-1.79s-2 .51-3.11 1.96c-1.11 1.45-4.17-.6-7.23-2.3s-1.62-1.8-1.62-1.8c-4.15.03-8.31-.07-12.46.16-1.86.1-3.72 1.21-5.58 1.28-6.07.23-12.53 2.35-18.6 2.85-2.65.22-11.93-1.81-14.58-1.55-10.78 1.03-21.56 1.67-32.34 2.34-2.07.13-4.14-.53-6.21-.33-6.44.64-12.87 1.74-19.31 2.17-1.95.13-3.9-1.38-5.49-1.99-.43 1.39-.64 2.63-.9 2.76-.57.28-1.17.14-1.75-.09-3.13-1.23-8.48-6.17-11.61-7.46-.02.5-.05 1.01-.07 1.51 1.67.77 5.56 5.16 7.59 6.09-.64.13-1.27.24-1.9.34l-15.89-3.63c-4.7-.73-9.35-2.22-14-4.44 0 .62-.02 1.24-.03 1.86l7.03 1.93c-1.55.42-3.09.32-4.62.44-.98.08-1.97.15-2.95.21h-15.13c-2.88-.2-5.75-.51-8.62-.98-2.46-.4-4.84-2.02-7.37.98h-47.98c-6.25-.69-12.5-1.7-18.75-1.79-9.39-.14-18.78.41-28.17.6-.77.02-1.54-.5-2.31-.77l.02-1.09h5.28c-.76-1.22-1.54-1.62-2.32-1.63-10.73-.1-21.47-.39-32.2-.14-7.36.18-14.72 1.38-22.08 1.63-4.15.14-8.3-.83-12.45-1.06-2.31-.13-4.64.55-6.95.29-4.43-.5-8.85-1.41-13.27-2.13-.54-.09-1.08-.01-1.62-.01v.72l5.04 1.71-.06 1.56c-5.09-1.41-10.17-2.83-15.26-4.24l-.03.94c1.41.57 2.82 1.15 4.23 1.72l-.05 1.28-9.55-2.94-.03.71c.32.38.63.76.95 1.15-2.47-.78-5.04 3.15-7.32-2-.23-.53-.72.04-1.1.1-1.22.21-2.45.65-3.67.57-1.01-.07-2.02-.76-3.04-1.18-.03.69-.05 1.39-.08 2.08 1.67.83 3.33 2.12 5.01 2.36 2.13.31 4.27-.5 6.4-.31 2.51.22 5.01.99 7.51 1.52v.37H74.77c-3.71-.23-7.41-.47-11.12-.7-8.54-.53-17.07-1.06-25.61-1.62-.31-.02-.62-.29-.92-.52-.81-.62-1.63-1.85-2.44-1.84-3.11.03-6.21.39-9.32.75-2.37.27-4.74.73-7.1 1.11l-.84.13c.65.45 1.07.73 1.48 1.01-.83.74-1.63.81-2.43.72-2.18-.23-4.37-.88-6.55-.71-3.34.27-6.68 1.09-10.02 1.68v9.67h2000v-9.67c-3.34-.59-6.68-1.41-10.02-1.68z"/><path class="cls-1" d="M1430.95 8.43c-1.52.17-3.03.34-4.55.5h4.47c.03-.17.05-.34.08-.5zm-24.03 2.67l19.48-2.16h-19.5c0 .72.01 1.44.02 2.16zM1433.81 0h-32.67v.31h32.65c0-.1 0-.21.01-.31zm-49.06.05h-30.06v.2h30.06v-.2zm21.49 8.45c0-.41 0-.81-.01-1.22l-14.08 2.55c0 .49.02.97.02 1.46l14.07-2.79zm-59.5-8.43h-12.57c0 .07 0 .14-.01.21h12.58V.07zm-172.17 3.8h-10.59c-.02.15-.03.31-.05.46h10.64v-.46zm47.51 3.55v-.43h-9.97v.43h9.97zm74.85-2.12v-.32h-8.23v.32h8.24zm-111.09-2.25h-7.47v.37h7.47v-.37zm183.25 2.17v-.21h-7.36v.21h7.36zm69.71 3.66c-.01-.22-.03-.43-.04-.65h-3.33c0 .22 0 .43.01.65h3.36z"/></g></svg>