<svg width="335" height="282" viewBox="0 0 335 282" fill="none" xmlns="http://www.w3.org/2000/svg"><path d="M211.206 131.839c.399.161.571.248.753.301 8.376 2.484 16.531 5.558 24.516 9.092a280.54 280.54 0 0 0 20.023 7.952c.484.17.965.346 1.456.498 1.433.451 2.833.981 4.192 1.622 4.004 1.892 8.159 3.384 12.373 4.733 5.072 1.626 10.112 3.348 15.173 5.012 6.784 2.233 13.593 4.388 20.518 6.155 1.988.507 3.98.989 5.968 1.499 5.221 1.344 10.199 3.322 14.985 5.791.67.344 1.312.732 1.802 1.319 1.183 1.426 1.438 3.034.89 4.779-.13.411-.292.827-.518 1.19-.706 1.135-1.353 2.304-2.244 3.326-.538.619-.958 1.348-1.389 2.057-5.015 8.26-8.32 17.159-9.946 26.683-.492 2.881-.747 5.79-.99 8.7a321.31 321.31 0 0 1-.799 8.364c-.22 2.004-.641 3.969-1.322 5.875-.337.941-.788 1.783-1.561 2.466-.749.664-2.595.826-3.346.247-.28-.217-.583-.406-.859-.631-5.959-4.862-12.51-8.813-19.246-12.477-6.387-3.475-13-6.47-19.714-9.251-2.989-1.24-5.976-2.488-8.933-3.801-8.039-3.568-15.573-8.015-22.724-13.123-.899-.642-1.791-1.295-2.686-1.942a75.032 75.032 0 0 1-7.999-6.663c-3.615-3.471-7.283-6.887-10.93-10.324-4.078-3.85-7.893-7.953-11.788-11.983-6.338-6.553-12.737-13.044-19.299-19.374-1.362-1.314-2.796-2.555-4.231-3.793-.716-.618-1.486-1.174-2.269-1.707a9.897 9.897 0 0 0-1.661-.898c-1.482-.633-2.865-.396-4.099.614-.761.625-1.513 1.269-2.201 1.972-1.937 1.983-4.047 3.766-6.272 5.402-2.776 2.039-5.891 3.172-9.376 3.15-.75-.005-1.499-.042-2.249-.055-.433-.009-.869-.025-1.3.01-1.017.082-1.92.44-2.63 1.2-.377.404-.75.812-1.091 1.247-2.087 2.666-4.802 4.286-8.131 4.878-.505.091-1.009.178-1.513.28-.385.078-.77.171-1.153.268-1.547.4-2.464 1.395-2.637 2.978-.138 1.252-.159 2.516-.237 3.777-.035.588-.018 1.19-.137 1.763-.933 4.571-1.466 9.195-1.798 13.844-.529 7.4-1.075 14.8-1.609 22.202a57.838 57.838 0 0 0-.138 2.601c-.153 5.923-.804 11.81-1.334 17.706-.972 10.808-2.012 21.612-3.014 32.419-.636 6.85-1.892 13.6-3.342 20.316-1.241 5.753-2.659 11.457-4.568 17.029-2.239 6.534-4.504 13.058-7.243 19.406-2.759 6.391-5.93 12.563-9.783 18.371-1.077 1.626-.704 1.498-2.755 1.174a23.414 23.414 0 0 1-1.968-.417c-2.242-.557-4.025-1.789-5.31-3.706a131.654 131.654 0 0 1-2.497-3.883c-1.746-2.821-3.632-5.542-5.705-8.133-2.265-2.832-5.051-4.954-8.37-6.418-3.745-1.651-7.644-2.752-11.677-3.405-1.83-.297-3.673-.528-5.499-.853-1.436-.257-2.878-.531-4.274-.94-2.599-.763-3.964-2.709-4.693-5.198-.244-.829-.037-1.519.524-2.186a88.892 88.892 0 0 0 3.254-4.064 72.104 72.104 0 0 0 7.212-11.938c2.58-5.375 4.959-10.837 7.08-16.411 1.53-4.023 2.897-8.099 4.17-12.209 2.069-6.673 3.862-13.423 5.626-20.179 1.197-4.582 2.418-9.156 3.888-13.66a202.552 202.552 0 0 1 6.264-16.611c1.58-3.704 3.328-7.328 5.138-10.924.28-.557.588-1.106.72-1.695-.221-.267-.406-.132-.537-.006-.371.352-.734.717-1.08 1.096-3.096 3.375-6.424 6.514-9.8 9.603-2.243 2.049-4.463 4.123-6.764 6.108-2.39 2.059-4.848 4.038-7.3 6.025a167.611 167.611 0 0 1-4.382 3.425 198.65 198.65 0 0 1-4.57 3.369 418.818 418.818 0 0 1-6.002 4.219c-1.168.806-2.366 1.57-3.556 2.345-1.056.689-2.128 1.356-3.175 2.061-5.674 3.828-11.894 6.516-18.34 8.712-2.352.802-4.751 1.464-7.14 2.151a97.88 97.88 0 0 1-4.923 1.285 58.095 58.095 0 0 1-7.585 1.26c-1.053.101-2.132.036-3.189-.062-3.222-.302-6.435-.719-9.582-1.495-5.482-1.351-10.334-3.846-14.24-8.005a122.845 122.845 0 0 1-3.41-3.779 15.99 15.99 0 0 1-2.453-3.882 5.893 5.893 0 0 1-.485-1.818c-.324-3.04-.19-6.068.25-9.086a87.5 87.5 0 0 1 .305-1.989c.816-4.809.931-9.658.802-14.515-.103-3.865-.893-7.6-2.253-11.205-.794-2.104-1.67-4.178-2.542-6.253-1.064-2.535-1.712-5.163-1.857-7.914-.106-1.982.02-3.947.351-5.898.238-1.399.497-2.798.762-4.194.736-3.9.934-7.821.728-11.786a58.678 58.678 0 0 0-.908-7.747 5.287 5.287 0 0 1 .184-2.682c.084-.263.182-.522.274-.782.734-2.034 2.04-3.508 4.08-4.335 1.755-.712 3.455-1.547 5.264-2.131 2.717-.874 5.505-1.383 8.32-1.801 2.652-.393 5.309-.785 7.941-1.297 3.336-.651 6.569-1.708 9.799-2.752 6.834-2.214 13.66-4.45 20.488-6.682 1.919-.627 3.891-1.041 5.878-1.365 3.971-.65 7.947-1.285 11.934-1.823 5.756-.773 11.547-1.081 17.349-1.239a336.317 336.317 0 0 1 28.877.458c3.823.224 7.648.278 11.476.001 1.49-.109 2.995.021 4.495.039.354.003.714.038 1.062-.015.591-.088.901-.48.89-1.067-.005-.235-.062-.469-.094-.703-.144-1.118.135-2.091.898-2.953 2.01-2.27 4.472-3.847 7.31-4.866 1.719-.617 3.505-.965 5.31-1.159 4.313-.467 8.421-1.703 12.445-3.258 2.445-.946 4.682-2.269 6.827-3.764 1.1-.767 2.224-1.5 3.361-2.211 2.375-1.49 4.949-2.428 7.745-2.742.745-.084 1.489-.176 2.235-.266a2.281 2.281 0 0 1 1.766.513c.428.346.848.705 1.275 1.055.394.32.767.38 1.299.19.992-.355 1.808-.928 2.567-1.622.816-.743 1.653-1.466 2.455-2.223 1.897-1.782 3.781-3.575 5.666-5.371 4.753-4.527 9.1-9.422 13.108-14.619 2.892-3.75 5.706-7.56 8.598-11.31 4.818-6.255 9.924-12.276 15.004-18.317 2.133-2.538 4.242-5.1 6.448-7.57 1.336-1.497 2.8-2.89 4.277-4.254a133.239 133.239 0 0 1 5.168-4.51c1.819-1.514 3.688-2.967 5.546-4.43a252.808 252.808 0 0 1 4.584-3.55c1.072-.805 2.186-1.555 3.29-2.314.843-.583 1.692-1.154 2.552-1.715 1.485-.97 2.966-1.95 4.476-2.886 1.41-.873 2.826-1.736 4.288-2.516 2.436-1.3 4.891-2.572 7.371-3.787a58.685 58.685 0 0 1 11.083-4.114 32.94 32.94 0 0 1 3.126-.662c1.947-.31 3.905-.545 5.856-.838.677-.104 1.341-.049 2.001.051a18.68 18.68 0 0 1 4.977 1.488c.635.292 1.082.7 1.412 1.344.793 1.544 1.682 3.037 2.519 4.555.764 1.388 1.388 2.83 1.804 4.366.483 1.787 1.018 3.56 1.538 5.336.586 1.999 1.591 3.784 2.877 5.4a116.59 116.59 0 0 0 3.879 4.624c2.074 2.343 3.984 4.796 5.495 7.541 1.16 2.107 2.29 4.234 3.177 6.474.303.767.499 1.58.696 2.384.868 3.528 1.598 7.082 1.878 10.713.192 2.483.195 4.968.111 7.455-.051 1.499-.119 2.997-.147 4.495-.061 3.238.564 6.36 1.727 9.37.759 1.968 1.86 3.746 3.199 5.37 1.079 1.31 2.209 2.575 3.295 3.88.654.79 1.284 1.6 1.889 2.428 1.79 2.455 2.595 5.213 2.389 8.238-.09 1.337-.296 2.665-.503 3.989a6.455 6.455 0 0 1-1.031 2.628c-.617.914-1.243 1.823-1.878 2.724-.715 1.01-1.629 1.829-2.631 2.535-.901.637-1.818 1.265-2.794 1.772-.976.504-2.024.884-3.056 1.267-2.451.911-4.991 1.461-7.574 1.855-4.254.645-8.534 1.062-12.815 1.47-2.511.24-5.037.355-7.551.563-2.24.186-4.478.398-6.713.649a260.64 260.64 0 0 0-7.16.902c-1.835.26-3.664.569-5.488.897-2.135.384-4.264.801-6.393 1.223-1.51.299-3.013.627-4.518.944-1.583.334-3.168.66-4.745 1.012-1.424.316-2.842.658-4.263.993-1.458.343-2.92.685-4.377 1.038-1.992.488-3.985.981-5.973 1.484-1.837.464-3.685.881-5.498 1.426-2.415.725-4.899 1.247-7.2 2.321-.891.417-1.753.894-2.639 1.315-1.318.628-2.648 1.232-3.971 1.853-.169.078-.319.194-.68.419l-.009.013zm-24.219-45.403c-.348.464-.56.833-.853 1.127-1.832 1.849-3.639 3.724-5.534 5.505a107.596 107.596 0 0 1-9.809 8.17c-1.905 1.406-3.82 2.793-5.993 3.781-.42.19-.785.518-1.156.806-.101.08-.136.244-.239.445.23.038.398.121.519.078.932-.318 1.887-.592 2.774-1.007a26.072 26.072 0 0 0 4.647-2.804c1.603-1.211 3.18-2.461 4.789-3.665 4.118-3.077 7.966-6.462 11.578-10.11 3.441-3.476 6.854-6.98 10.269-10.48 2.451-2.513 4.853-5.076 7.352-7.54 1.512-1.494 3.144-2.868 4.77-4.246 1.231-1.044 2.521-2.021 3.806-3.002a345.537 345.537 0 0 1 5.396-4.046c1.527-1.12 3.085-2.196 4.622-3.3 1.667-1.198 3.381-2.323 5.206-3.273.351-.182.68-.4 1.023-.593.86-.482 1.719-.963 2.581-1.44.897-.496 1.795-.99 2.699-1.477a49.01 49.01 0 0 1 1.581-.803c.132-.064.297-.118.346.162-1.017.829-2.046 1.672-3.082 2.51-2.394 1.933-4.811 3.84-7.185 5.797a922.303 922.303 0 0 0-9.08 7.591 683.907 683.907 0 0 0-8.177 7.006c-1.158 1.009-2.261 2.086-3.346 3.176-.832.838-1.58 1.76-2.392 2.618-3.167 3.357-6.344 6.703-9.518 10.055-3.2 3.38-6.4 6.76-9.879 9.862-1.709 1.523-3.464 2.99-5.325 4.323-2.281 1.635-4.736 2.993-7.192 4.34-1.589.874-3.23 1.654-4.817 2.533-.859.476-1.667 1.049-2.472 1.614a2.658 2.658 0 0 0-.709.78c-.55.902-.11 1.949.899 2.268.709.224 1.307.013 1.891-.387 2.282-1.556 4.567-3.102 6.852-4.65 3.528-2.388 7.089-4.721 10.87-6.699.04-.021.122.039.264.09-.32.317-.613.614-.915.906-.199.191-.406.374-.611.556-.794.709-1.643 1.344-2.515 1.957-1 .702-1.951 1.47-2.953 2.17a82.226 82.226 0 0 1-3.541 2.364 173.272 173.272 0 0 1-5.063 3.051c-1.228.71-2.507 1.338-3.739 2.039-.294.165-.557.446-.744.734-.282.435-.233.912.078 1.331.272.366.681.414 1.072.302a5.571 5.571 0 0 0 1.187-.514c1.851-1.055 3.688-2.132 5.539-3.193.958-.549 1.935-1.063 2.896-1.605a93.661 93.661 0 0 0 2.145-1.252c.778-.463 1.549-.941 2.328-1.399 1.358-.797 2.72-1.587 4.021-2.481 1.199-.826 2.449-1.578 3.676-2.364.066-.041.128-.092.185-.147.843-.821 1.913-1.237 2.969-1.677.078-.035.202.035.54.106-.829.498-1.204 1.196-1.885 1.619-.935.582-1.714 1.388-2.712 1.887-.17.085-.291.264-.447.386-.25.193-.499.386-.763.556-1.294.83-2.593 1.648-3.887 2.472-1.597 1.014-3.188 2.044-4.796 3.04-.67.415-1.401.728-2.072 1.141a30.779 30.779 0 0 1-4.638 2.36c-1.207.488-2.426.943-3.64 1.414-.369.143-.745.261-1.002.594-.24.308-.499.599-.747.899a.48.48 0 0 0 .2.772c.39.153.768.073 1.158-.016 1.944-.44 3.746-1.262 5.488-2.175 1.602-.839 3.103-1.872 4.66-2.802a867.347 867.347 0 0 1 7.434-4.39c1.84-1.073 3.709-2.1 5.549-3.173 1.19-.697 2.358-1.436 3.531-2.165a689.882 689.882 0 0 0 4.812-3.015c.799-.508 1.573-1.051 2.37-1.56 1.326-.85 2.656-1.7 3.993-2.531.935-.583 1.881-1.15 2.835-1.703.572-.334 1.167-.624 1.859-.99-.12.616-.477.915-.843 1.2-1.618 1.264-3.215 2.555-4.86 3.775-2.977 2.21-5.984 4.378-8.978 6.563-3.448 2.515-7.052 4.783-10.841 6.75-2.171 1.127-4.383 2.179-6.565 3.282-1.16.586-2.31 1.197-3.457 1.813-1.076.579-2.153 1.155-3.209 1.773-.917.537-1.802 1.124-2.694 1.699-.271.176-.489.402-.311.854.245-.046.527-.042.758-.146 1.371-.604 2.749-1.2 4.093-1.866 2.123-1.047 4.219-2.147 6.328-3.225 2.913-1.493 5.841-2.96 8.733-4.496a62.787 62.787 0 0 0 4.377-2.585 267.38 267.38 0 0 0 6.119-4.049 792.94 792.94 0 0 0 7.607-5.223c1.133-.784 2.214-1.648 3.361-2.407 1.809-1.196 3.658-2.326 5.477-3.504 4.705-3.043 9.382-6.127 14.105-9.14 4.423-2.824 8.87-5.613 13.547-8.016 2.639-1.356 5.368-2.495 8.149-3.512.703-.257 1.427-.46 2.148-.67.119-.035.265.031.495.063-.393.52-.87.72-1.305.975-.373.219-.752.437-1.089.701-1.054.825-2.058 1.718-3.141 2.504-2.519 1.828-5.084 3.592-7.607 5.413-2.268 1.637-4.495 3.335-6.767 4.971a1240.059 1240.059 0 0 1-10.303 7.336 191.526 191.526 0 0 1-5.286 3.58 240.474 240.474 0 0 1-5.586 3.546 246.424 246.424 0 0 1-5.669 3.406c-1.741 1.008-3.513 1.958-5.267 2.94-2.51 1.404-5.004 2.835-7.528 4.213-1.833 1.003-3.695 1.954-5.557 2.906-4.742 2.427-9.464 4.893-13.97 7.746-1.029.651-2.005 1.389-2.991 2.105-.218.159-.392.385-.558.602-.06.076-.077.273-.025.323.096.098.27.195.391.171.225-.045.438-.163.648-.268.42-.217.828-.462 1.253-.666.782-.375 1.591-.703 2.364-1.096 1.758-.897 3.492-1.833 5.251-2.727 3.414-1.733 6.831-3.458 10.255-5.167 3.918-1.957 7.849-3.894 11.769-5.847 1.483-.739 2.949-1.511 4.432-2.25.173-.086.356-.337.627-.087-.095.087-.168.172-.259.23-1.971 1.239-3.958 2.445-5.909 3.713-4.468 2.912-9.138 5.475-13.811 8.032-2.873 1.571-5.737 3.155-8.484 4.944-.956.625-1.91 1.268-2.919 1.802-1.124.597-2.095 1.379-3.073 2.191.047.379.07.734.136 1.078.044.237.319.409.545.326.443-.159.886-.33 1.304-.545.737-.378 1.441-.822 2.183-1.188 2.834-1.39 5.685-2.747 8.517-4.142 2.833-1.393 5.674-2.772 8.469-4.238a214.625 214.625 0 0 0 7.975-4.409c4.403-2.552 8.768-5.17 13.157-7.749.694-.408 1.366-.865 2.15-1.123-.094.19-.212.345-.364.454-1.238.904-2.466 1.824-3.729 2.69-1.297.89-2.6 1.779-3.954 2.578-2.684 1.583-5.413 3.09-8.108 4.655-2.048 1.189-4.066 2.426-6.109 3.618a174.68 174.68 0 0 1-4.736 2.684c-1.316.714-2.666 1.368-4.001 2.047-1.089.555-2.193 1.084-3.265 1.667-2.113 1.147-4.215 2.32-6.314 3.491-.407.228-.789.497-1.181.744a37.71 37.71 0 0 0 3.405-1.031c2.352-.822 4.603-1.874 6.846-2.946 2.03-.968 4.022-2.013 6.026-3.033 1.266-.643 2.537-1.276 3.783-1.959a299.046 299.046 0 0 0 5.882-3.301c3.143-1.817 6.265-3.668 9.406-5.49 2.287-1.325 4.569-2.659 6.889-3.923a210.145 210.145 0 0 1 8.531-4.373c3.093-1.505 6.27-2.791 9.485-3.995a109.158 109.158 0 0 0 5.482-2.228c1.951-.854 3.859-1.808 5.797-2.692 3.629-1.656 7.327-3.145 11.155-4.28.281-.085.568-.259.897-.032-.076.119-.115.247-.2.305-.523.353-1.03.742-1.59 1.023a93.86 93.86 0 0 1-4.275 2.035c-2.458 1.08-4.936 2.11-7.404 3.162-.326.139-.65.284-.968.44-1.666.815-3.324 1.64-4.992 2.45-1.81.879-3.624 1.745-5.437 2.617-.498.239-.997.475-1.493.717-1.949.952-3.897 1.907-5.845 2.862-.177.087-.34.198-.515.291-.455.237-.907.479-1.368.705-2.087 1.028-4.137 2.128-6.069 3.432-.26.176-.522.355-.795.514-1.878 1.087-3.751 2.184-5.64 3.25a556.467 556.467 0 0 1-7.542 4.207c-3.086 1.677-6.194 3.309-9.29 4.971-.763.409-1.511.847-2.259 1.285-1.53.895-3.037 1.831-4.587 2.691-1.725.955-3.489 1.839-5.234 2.762-.124.064-.319.104-.209.437.603-.259 1.251-.349 1.866-.588 2.614-1.006 5.278-1.886 7.771-3.183.384-.2.797-.346 1.186-.536 2.051-1.01 4.114-2.001 6.147-3.047 2.385-1.225 4.737-2.517 7.12-3.747 1.715-.887 3.478-1.686 5.185-2.592 1.989-1.058 4.051-1.947 6.108-2.86 1.3-.575 2.576-1.196 3.855-1.818 2.378-1.155 4.726-2.379 7.128-3.48 6.212-2.842 12.53-5.427 18.998-7.636 1.68-.573 3.378-1.092 5.071-1.63 2.556-.814 5.114-1.623 7.67-2.431.187-.06.383-.098.573-.15 2.392-.671 4.783-1.35 7.179-2.015a584.103 584.103 0 0 1 5.94-1.611c1.754-.466 3.513-.913 5.268-1.37 1.64-.427 3.273-.895 4.923-1.28 2.652-.62 5.31-1.204 7.971-1.77 2.975-.633 5.977-1.089 9.021-1.215 2.263-.094 4.49.155 6.673.776 1.265.363 2.428.936 3.518 1.662.726.482 1.187 1.138 1.328 2.012.473 2.944-.208 5.498-2.583 7.434-.635.519-1.362.945-2.094 1.321-2.594 1.326-5.398 1.989-8.237 2.517-4.351.807-8.743 1.286-13.155 1.598-7.955.56-15.885 1.294-23.726 2.838-3.445.679-6.9 1.298-10.313 2.141-3.6.887-7.21 1.742-10.829 2.553a51.953 51.953 0 0 0-8.015 2.471c-2.892 1.162-5.846 2.165-8.711 3.4-.073.033-.151.047-.223.076-2.53 1.004-5.064 2.006-7.589 3.02-.367.146-.712.355-1.066.536.552.022 1.046-.095 1.524-.253.526-.17 1.034-.393 1.558-.565 1.462-.479 2.926-.941 4.392-1.412 1.164-.376 2.321-.765 3.488-1.127 2.072-.643 4.156-1.246 6.224-1.905a77.34 77.34 0 0 1 6.857-1.839c2.312-.504 4.64-.939 6.951-1.451 6.859-1.522 13.777-2.725 20.709-3.867 5.34-.881 10.728-1.333 16.123-1.689 4.528-.3 9.056-.612 13.552-1.265 2.736-.398 5.447-.916 8.093-1.732 2.128-.656 4.15-1.527 5.921-2.899 2.76-2.14 3.984-4.911 3.398-8.416-.089-.54-.106-1.096-.126-1.648-.072-1.93-.557-3.741-1.498-5.427a28.05 28.05 0 0 0-2.638-3.921 209.273 209.273 0 0 0-3.241-3.922 15.215 15.215 0 0 1-2.949-5.353 45.983 45.983 0 0 1-.846-3.198c-.524-2.245-.604-4.53-.529-6.819.042-1.3.208-2.594.304-3.892.468-6.18-.2-12.21-2.329-18.06a32.881 32.881 0 0 0-2.742-5.76c-1.162-1.928-2.517-3.724-3.898-5.496-1.794-2.304-3.63-4.575-5.42-6.877-1.687-2.17-2.906-4.6-3.756-7.21-.156-.482-.233-.996-.299-1.504-.155-1.174-.233-2.36-.433-3.522-.228-1.32-.472-2.647-.86-3.925-.723-2.392-2.166-4.184-4.627-5.003-.261-.088-.502-.244-.766-.307-.338-.077-.703-.168-1.036-.116-.894.14-1.782.337-2.665.55-1.919.463-3.836.928-5.744 1.428-1.793.471-3.591.936-5.357 1.5-3.092.986-6.011 2.388-8.901 3.85a128.803 128.803 0 0 0-8.496 4.693c-1.316.796-2.653 1.56-3.928 2.42-1.928 1.302-3.806 2.675-5.709 4.013-2.555 1.794-4.945 3.795-7.287 5.85a307.443 307.443 0 0 0-10.449 9.617c-2.901 2.792-5.674 5.708-8.251 8.796-3.916 4.697-7.767 9.447-11.622 14.193-3.482 4.288-6.897 8.627-10.404 12.891-3.056 3.717-6.189 7.37-9.309 11.036-2.611 3.065-5.34 6.02-8.301 8.751-2.292 2.115-4.66 4.138-7.189 5.971-.415.301-.815.622-1.218.942-.517.405-.609 1.018-.657 1.594-.043.518.461.793.783 1.122.12.125.356.189.539.187.656-.007 1.296-.169 1.631-.78.31-.558.783-.865 1.299-1.161a9.26 9.26 0 0 0 .9-.568 246.803 246.803 0 0 0 3.045-2.24c1.482-1.109 2.996-2.18 4.425-3.356 1.61-1.327 3.139-2.749 4.704-4.132.62-.547 1.216-1.122 1.855-1.648.849-.702 1.732-1.367 2.595-2.052.557-.44 1.106-.892 1.662-1.333.299-.235.603-.455 1.188-.473l-.001.018zM34.618 205.61c.093-.067.172-.158.27-.195 1.891-.688 3.77-1.402 5.68-2.045 2.466-.832 4.951-1.609 7.43-2.412.113-.036.225-.08.332-.128 2.991-1.331 5.994-2.645 8.97-4.011 2.367-1.086 4.706-2.232 7.055-3.36a307.734 307.734 0 0 0 3.827-1.873c1.731-.858 3.462-1.725 5.19-2.59 1.2-.602 2.394-1.21 3.592-1.816 1.302-.662 2.609-1.313 3.903-1.986 2.626-1.365 5.274-2.687 7.86-4.124 2.517-1.398 4.977-2.902 7.443-4.391 1.586-.96 3.15-1.959 4.7-2.974 3.835-2.504 7.544-5.186 11.168-7.981 2.216-1.71 4.393-3.474 6.579-5.223.325-.262.603-.581.905-.873-.279.016-.475.133-.658.267-.948.708-1.892 1.42-2.837 2.13-4.67 3.5-9.437 6.854-14.497 9.787-3.315 1.923-6.757 3.592-10.193 5.282-1.664.817-3.352 1.583-5.03 2.369-.752.352-1.504.695-2.256 1.045-1.857.87-3.701 1.767-5.574 2.604-1.261.562-2.558 1.045-3.84 1.555-.255.102-.526.17-.79.252.14-.19.308-.292.482-.374 1.25-.589 2.503-1.17 3.748-1.769.28-.133.686-.261.77-.491.215-.58.7-.706 1.156-.918.321-.151.65-.289.962-.457 1.496-.795 2.984-1.603 4.48-2.392 1.254-.663 2.538-1.275 3.777-1.967 2.617-1.463 5.238-2.925 7.81-4.464 2.47-1.479 4.922-2.994 7.305-4.604 3.756-2.536 7.335-5.314 10.889-8.129 2.686-2.129 5.366-4.271 8.191-6.218.651-.447 1.306-.882 1.963-1.32.237-.158.454-.331.452-.645-.002-.936-.51-1.559-1.417-1.774-1.264-.301-2.328.272-3.337.858-1.295.749-2.497 1.661-3.779 2.433-1.554.934-3.144 1.814-4.734 2.688-3.839 2.109-7.68 4.214-11.531 6.296a139.399 139.399 0 0 1-5.047 2.606 382.313 382.313 0 0 1-7.91 3.764c-3.439 1.584-6.885 3.159-10.36 4.668-6.485 2.814-13.095 5.293-19.898 7.248-2.73.784-5.46 1.561-8.251 2.092-2.441.462-4.891.893-7.347 1.257-1.872.279-3.759.454-5.642.641-4.044.403-8.089.785-12.133 1.167-.13.011-.267-.062-.487-.116.179-.149.252-.246.35-.29 1.403-.636 2.818-1.234 4.335-1.565.731-.159 1.455-.362 2.183-.537 1.34-.326 2.676-.689 4.03-.959 2.94-.589 5.89-1.12 8.834-1.692 1.2-.234 2.398-.481 3.586-.777 1.34-.334 2.663-.724 3.993-1.095 2.05-.574 4.102-1.137 6.147-1.729 1.931-.56 3.87-1.102 5.776-1.737a129.28 129.28 0 0 0 6.679-2.411 170.505 170.505 0 0 0 7.406-3.149c3.924-1.767 7.731-3.771 11.554-5.745a236.174 236.174 0 0 1 5.407-2.684c4.795-2.328 9.522-4.783 14.014-7.667 2.464-1.585 4.825-3.284 6.828-5.445.669-.721 1.414-1.374 2.13-2.054.887-.845 1.74-1.723 2.427-2.742.329-.488.615-1.012.862-1.545.281-.601.256-1.229-.031-1.834-.551-1.164-.623-1.339-1.834-.762-.855.407-1.718.794-2.587 1.178-.346.154-.691.369-1.151.265.042-.154.037-.297.105-.354a75.144 75.144 0 0 1 2.02-1.626c.687-.528 1.407-1.015 2.089-1.555.274-.215.508-.497.707-.784.224-.322.114-.714-.226-.921-.465-.284-.907-.385-1.418-.011a29.668 29.668 0 0 1-4.126 2.546c-3.714 1.884-7.654 3.157-11.647 4.264a95.706 95.706 0 0 1-7.482 1.752c-7.643 1.471-15.35 2.436-23.127 2.834-3.662.186-7.326.328-10.989.485-.433.018-.865.029-1.296-.001-.162-.009-.313-.146-.513-.247.287-.463.67-.502 1.064-.553 2.225-.287 4.446-.601 6.674-.875 5.599-.692 11.207-1.319 16.8-2.06 6.453-.857 12.837-2.062 19.073-3.986 2.678-.827 5.332-1.711 7.906-2.825 2.136-.925 4.281-1.839 6.419-2.759.252-.109.512-.213.737-.369.11-.075.225-.275.198-.383-.044-.164-.189-.403-.325-.427-.42-.079-.868-.148-1.282-.08-1.008.168-2.031.335-3 .649-2.176.704-4.322 1.502-6.486 2.252-.445.155-.899.304-1.361.399-1.659.339-3.314.667-4.93 1.199a48.69 48.69 0 0 1-7.111 1.786c-1.983.34-3.97.67-5.967.897-2.665.302-5.34.501-8.01.732-2.158.187-4.32.365-6.482.531-1.964.151-3.932.288-5.899.42-1.494.099-2.988.204-4.483.268-2.245.097-4.49.175-6.736.238-2.283.062-4.57.146-6.853.136-3.43-.014-6.855.101-10.269.418-2.119.196-4.236.456-6.344.756-2.652.375-5.298.806-7.942 1.233-2.216.359-4.438.677-6.612 1.262a3.739 3.739 0 0 1-.938.109c-.125 0-.339-.112-.358-.209-.026-.116.07-.334.177-.394a8.25 8.25 0 0 1 1.175-.54c.63-.231 1.28-.404 1.907-.642 2.625-1 5.344-1.664 8.097-2.181a168.678 168.678 0 0 1 14.05-2.029 57.25 57.25 0 0 1 6.966-.262c2.207.048 4.411.088 6.62.079 1.774-.007 3.547-.056 5.318-.155 1.336-.075 2.668-.231 3.999-.394 1.76-.217 3.511-.498 5.272-.713 2.309-.281 4.624-.521 6.935-.779 2.392-.265 4.783-.519 7.174-.801a140.56 140.56 0 0 0 4.927-.641c1.988-.307 3.962-.684 5.947-1.013a77.903 77.903 0 0 0 7.631-1.641c1.941-.525 3.873-1.088 5.828-1.541a28.384 28.384 0 0 0 6.543-2.376c.309-.158.579-.398.853-.619.16-.127.286-.335.117-.499-.118-.114-.343-.127-.522-.164-.07-.013-.152.033-.227.054-1.657.513-3.311 1.034-4.973 1.537-.64.194-1.299.327-1.942.514-1.587.468-3.154 1.025-4.761 1.408-2.839.677-5.706 1.233-8.602 1.606-8.527 1.097-17.074 2.033-25.658 2.557-1.613.099-3.23.139-4.845.19-.198.006-.479.096-.568-.22.057-.069.095-.148.158-.184.168-.101.34-.205.524-.271 1.567-.558 3.18-.929 4.84-1.055 2.945-.223 5.897-.37 8.818-.85a30.659 30.659 0 0 1 2.58-.322c2.713-.225 5.425-.446 8.14-.63 6.496-.447 12.801-1.829 18.967-3.883 1.894-.63 3.487-1.812 5.154-2.852.471-.294.808-.748 1.011-1.282.351-.924.002-1.866-.885-2.297a3.916 3.916 0 0 0-.898-.292c-.898-.196-1.798-.192-2.705-.039-2.218.375-4.434.746-6.653 1.097a96.645 96.645 0 0 1-4.1.579c-2.9.331-5.797.708-8.706.914-3.146.222-6.301.334-9.455.383-5.008.079-10.019.101-15.027.08-4.892-.019-9.783-.209-14.67.172-2.163.169-4.324.355-6.478.611-2.584.307-5.16.689-7.739 1.052a80.65 80.65 0 0 0-2.922.464 161.087 161.087 0 0 0-8.693 1.774c-1.65.393-3.292.821-4.927 1.272-2.13.586-4.258 1.18-6.372 1.821-2.643.803-5.27 1.654-7.903 2.485-.113.036-.228.067-.341.1-2.422.71-4.84 1.442-7.27 2.125-1.632.458-3.275.897-4.932 1.253-3.744.803-7.523 1.406-11.316 1.927-.82.111-1.642.232-2.454.395-.93.186-1.832.454-2.69.879-2.128 1.056-2.517 3.972-.749 5.459.176.146.423.328.446.516.086.698.585.796 1.12 1.022.909.381 1.683.226 2.467-.249.1-.062.212-.106.319-.156 1.613-.762 3.303-1.305 5.03-1.732.322-.079.677-.278 1.049.073-.178.164-.325.358-.519.461-.554.302-1.115.596-1.693.845-1.341.579-2.705 1.102-4.033 1.711a12.3 12.3 0 0 0-2.03 1.196c-1.354.964-1.387 2.47-1.516 3.925a.243.243 0 0 0 .023.116c.244.51.29 1.047.296 1.604.003.393.326.64.726.62.271-.013.556-.049.81-.141.59-.216 1.176-.451 1.747-.717 1.469-.68 2.923-1.386 4.393-2.064.189-.087.394-.275.691-.06-.142.224-.236.517-.439.66-.929.653-1.745 1.462-2.84 1.894-1.17.466-2.293 1.051-3.425 1.608a4.196 4.196 0 0 0-.884.585c-.699.601-.839 1.355-.407 1.991.413.605 1.101.762 1.9.412.251-.111.48-.272.73-.392.603-.292 1.203-.597 1.82-.854.385-.16.793-.306 1.286-.208-.096.145-.14.267-.226.326-.453.312-.904.636-1.385.908-.963.543-1.961 1.022-2.912 1.58a26.74 26.74 0 0 0-2.371 1.558 3.778 3.778 0 0 0-.947 1.04c-.502.807-.347 1.725.357 2.362.348.316.736.584 1.14.9.325-.139.643-.284.966-.41.955-.373 1.91-.745 2.874-1.098.108-.04.257.04.566.098-.396.336-.635.592-.922.775-1.196.76-2.42 1.48-3.612 2.25-.628.405-1.227.856-1.808 1.328-.434.35-.753.808-.928 1.35-.261.811-.043 1.662.616 2.125.416.293.883.523 1.348.733.157.071.395.043.568-.022.292-.11.558-.293.841-.43.922-.448 1.837-.917 2.774-1.329a7.008 7.008 0 0 1 2.527-.573c.163-.006.331.089.573.16-.4.531-.8.898-1.296 1.16-.455.238-.92.459-1.37.698-1.22.651-2.428 1.32-3.653 1.959-1.033.536-1.337 1.5-1.512 2.529-.09.537.116 1.014.527 1.38.747.662 1.524 1.11 2.554.511.4-.233.888-.319 1.338-.47 1.244-.422 2.53-.595 3.842-.613.17-.003.343.084.636.163-.272.197-.419.333-.587.419-.951.479-1.916.929-2.86 1.419-.767.4-1.523.825-2.269 1.268-.867.517-1.072 1.315-.856 2.252.25 1.085 1.335 1.892 2.435 1.773.704-.077 1.405-.208 2.104-.33 1.049-.181 2.093-.418 3.147-.549.74-.09 1.494-.052 2.242-.044.173.002.408.038.416.311-.047.065-.077.154-.138.182-.965.449-1.91.946-2.903 1.321-1.179.446-2.393.806-3.603 1.163-.528.157-.924.377-1.115.932-.084.25-.309.453-.465.68-.155.226-.323.447-.459.686-.12.21-.178.458-.014.669.19.248.473.276.751.193.263-.079.523-.183.77-.304 1.748-.866 3.61-1.369 5.5-1.799.692-.156 1.37-.373 2.053-.561.42-.113.839-.221 1.26-.332.648-.169 1.291-.357 1.943-.504.496-.113 1-.186 1.506-.25.138-.018.327 0 .344.314-.288.251-.69.395-1.074.571-1.689.781-3.47 1.303-5.256 1.803a29.29 29.29 0 0 1-2.181.522c-.887.173-1.744.502-2.666.516-.185.003-.45.209-.533.389-.23.493-.407 1.019-.562 1.543-.22.728.112 1.439.8 1.78.55.271 1.125.369 1.723.176.6-.194 1.203-.384 1.796-.599 1.929-.704 3.88-1.336 5.884-1.796a16.865 16.865 0 0 1 4.23-.427c.173.004.412-.029.449.36-1.837 1.113-3.922 1.7-5.954 2.421-2.079.738-4.228 1.214-6.399 1.701-.088.682-.262 1.279-.744 1.73-.056.051-.092.128-.128.2-.296.572-.14 1.115.452 1.381.613.275 1.222.418 1.939.225a78.597 78.597 0 0 0 5.545-1.693c1.512-.53 3.053-.805 4.642-.356.177.049.402.069.413.403-.096.066-.209.166-.34.227-.971.453-1.984.781-3.039.968-1.788.317-3.58.607-5.365.923-.972.17-1.942.357-2.833.815-.465.239-.875.539-1.14 1.001-.33.582-.285 1.245.142 1.772.403.498.898.765 1.559.544.185-.062.39-.08.57-.152 1.078-.427 2.21-.596 3.348-.717 1.57-.165 3.142-.284 4.715-.395.42-.029.861-.059 1.245.161-.033.823-.095.912-.688 1.03-.116.022-.236.015-.352.034-2.694.426-5.324 1.116-7.908 1.971-1.084.358-2.136.82-3.197 1.251-.528.215-.698.784-.401 1.268.081.13.186.261.313.35.537.38 1.105.58 1.78.358 1.012-.334 2.025-.668 3.056-.937 1.409-.368 2.837-.674 4.255-1.002.114-.027.235-.023.354-.032.942-.054 1.884-.115 2.827-.152.232-.01.467.051.701.073.253.024.508.045.934.083-.456.381-.718.69-1.19.772-.618.106-1.224.297-1.834.44-1.304.304-2.628.543-3.912.91-1.971.562-3.917 1.213-5.876 1.828-.186.06-.37.139-.552.217-.38.16-.637.435-.812.817-.294.644-.631 1.27-.935 1.91a4.025 4.025 0 0 0-.226.667c-.045.175.197.409.368.356.185-.057.371-.131.54-.226 1.095-.625 2.175-1.281 3.284-1.879 1.985-1.074 4.065-1.942 6.274-2.42a22.343 22.343 0 0 1 6.47-.447c1.732.134 3.46.292 5.19.441 3.306.286 6.61.484 9.933.432 5.333-.083 10.645-.423 15.933-1.102a33.934 33.934 0 0 0 4.41-.852c1.406-.375 2.761-.937 4.138-1.416.522-.18 1.039-.375 1.568-.523 1.401-.393 2.82-.733 4.212-1.16 1.392-.427 2.75-.97 4.144-1.392 1.97-.597 3.87-1.37 5.746-2.197a1195.47 1195.47 0 0 0 14.903-6.7c2.117-.968 4.199-2.015 6.165-3.27 3.853-2.462 7.724-4.901 11.547-7.411 2.604-1.711 5.139-3.523 7.699-5.299.22-.154.388-.38.58-.573a1.68 1.68 0 0 0-.728.195c-1.988.964-3.978 1.929-5.96 2.905-.6.296-1.209.588-1.776.945-1.801 1.141-3.727 2.054-5.556 3.145-2.673 1.599-5.5 2.933-8.363 4.173-4.057 1.757-8.136 3.456-12.199 5.201-3.264 1.4-6.51 2.849-9.776 4.244-2.398 1.027-4.844 1.924-7.4 2.475-1.542.333-3.098.609-4.649.894a81.13 81.13 0 0 1-2.685.439c-.175.026-.392.102-.557-.117l-.008-.017zm79.346-27.826c-.059-.041-.121-.08-.18-.121-.221.317-.451.627-.66.95-3.431 5.313-6.531 10.806-9.144 16.572-4.288 9.459-7.353 19.311-9.502 29.456-1.272 6.013-2.47 12.041-3.684 18.066a28.985 28.985 0 0 1-1.653 5.42c-.06.147-.072.4-.39.341-.003-.163-.019-.316 0-.465.216-1.958.394-3.926.668-5.874a700.506 700.506 0 0 1 1.871-12.631c1.478-9.294 3.74-18.394 6.928-27.253 2.475-6.884 5.369-13.58 8.958-19.962 1.294-2.304 2.697-4.548 4.038-6.826.099-.17.355-.331.127-.652-.137.163-.272.293-.376.447a673.816 673.816 0 0 0-2.592 3.822c-2.819 4.194-5.479 8.481-7.795 12.979-3.272 6.354-6.413 12.764-9.037 19.417-1.986 5.031-3.875 10.098-5.382 15.293a474.546 474.546 0 0 0-3.251 11.873c-1.89 7.213-3.795 14.42-6.058 21.531-1.894 5.947-4.016 11.807-6.503 17.529-1.462 3.365-2.96 6.717-4.55 10.025-2.572 5.36-5.807 10.306-9.582 14.899-.177.213-.35.427-.501.658-.24.364-.086.745.34.785.55.053 1.102.076 1.655.078 3.049.017 6.066.337 9.03 1.067 1.799.442 3.603.882 5.383 1.4 3.222.936 6.409 1.971 9.416 3.507 2.893 1.476 5.394 3.389 7.323 6.038 1.904 2.617 3.87 5.185 5.825 7.765.764 1.008 1.475 2.043 2.078 3.161.542 1.008 1.144 1.98 1.743 2.957.341.557.704.591 1.128.122.239-.264.454-.547.662-.835.534-.734 1.06-1.473 1.59-2.21 3.069-4.291 5.541-8.906 7.497-13.802 1.347-3.372 2.503-6.814 3.648-10.26 1.842-5.545 3.44-11.16 4.718-16.863 2.313-10.322 4.293-20.71 5.751-31.189.971-6.996 1.827-14.008 2.458-21.043.405-4.544.931-9.085.706-13.667-.057-1.171.06-2.356.153-3.532.192-2.473.428-4.945.633-7.421.292-3.501.607-7.001 1.343-10.442.644-3.01 1.374-6 2.057-9.001.37-1.615.723-3.235 1.07-4.854.03-.142.157-.368-.176-.468-.104.35-.206.685-.303 1.023-.474 1.67-.924 3.347-1.42 5.013a231.981 231.981 0 0 0-6.365 27.435c-1.027 6.072-1.752 12.185-2.447 18.3-.423 3.725-.746 7.462-1.155 11.187-.862 7.856-2.283 15.619-3.965 23.334-1.309 6.014-2.673 12.016-3.493 18.127-.426 3.167-.997 6.316-2.102 9.339-.733 1.999-1.301 4.055-2.295 5.957-.584 1.115-1.009 2.303-1.43 3.494-1.111 3.124-2.299 6.218-3.882 9.145a37.421 37.421 0 0 1-3.5 5.341c-.126.158-.207.447-.554.342.019-.113.015-.234.06-.33.957-2.078 1.929-4.148 2.879-6.232 1.784-3.917 3.306-7.939 4.673-12.021.689-2.058 1.385-4.113 2.085-6.167.596-1.754 1.218-3.505 1.404-5.368.133-1.335.256-2.671.398-4.004.283-2.627.511-5.262.883-7.876.79-5.588 1.642-11.165 2.497-16.744 1.094-7.141 2.031-14.3 2.551-21.51.235-3.266.455-6.536.745-9.797.951-10.642 2.931-21.102 5.574-31.443 1.252-4.897 2.759-9.719 4.18-14.566.999-3.407 1.923-6.836 2.871-10.261.054-.2.248-.432-.065-.684-.097.169-.209.318-.276.488-.28.697-.557 1.392-.812 2.098-2.262 6.234-4.414 12.505-6.314 18.858-1.346 4.501-2.635 9.015-3.666 13.601-2.034 9.055-3.7 18.175-5.06 27.353-1.258 8.475-2.135 16.994-2.56 25.551-.307 6.149-.567 12.297-1.226 18.422-.186 1.726-.376 3.448-.86 5.129-.316 1.098-.562 2.217-.875 3.317-.744 2.616-1.469 5.242-2.277 7.84-.725 2.337-1.578 4.631-2.321 6.961-1.462 4.576-3.585 8.84-5.981 12.983-.176.306-.348.622-.72.744-.427-.041-.555-.401-.748-.691-.376-.568-.47-1.16-.17-1.796a6.02 6.02 0 0 0 .299-.772c.092-.298.244-.613.217-.908-.081-.904.195-1.718.54-2.519a135.154 135.154 0 0 0 3.76-9.712c1.196-3.51 2.38-7.026 3.507-10.557 1.12-3.502 1.782-7.115 2.405-10.731.322-1.866.496-3.738.371-5.65a77.434 77.434 0 0 1-.162-6.5c.063-3.431.226-6.86.372-10.29.162-3.785.44-7.56.831-11.33.731-7.07 1.91-14.071 3.242-21.05 1.287-6.746 2.687-13.467 4.369-20.126 1.109-4.399 2.231-8.794 3.443-13.166 1.435-5.186 3.517-10.135 5.754-15.021 1.874-4.092 3.74-8.186 5.199-12.448.152-.451.313-.884.095-1.426-.17.058-.349.068-.436.162a3.29 3.29 0 0 0-.461.681c-.553 1.046-1.131 2.082-1.628 3.156-1.948 4.186-3.909 8.368-5.788 12.585-2.012 4.509-3.789 9.112-5.142 13.867-1.016 3.566-1.95 7.158-2.959 10.727-.955 3.388-1.697 6.815-2.174 10.299-.502 3.676-1.203 7.315-1.966 10.944-1.347 6.408-2.712 12.815-4.071 19.222-.425 2.008-.857 4.013-1.286 6.019-.024.116-.044.236-.093.342-.053.117-.021.339-.309.263.032-.388.053-.779.096-1.167.394-3.528.762-7.06 1.194-10.586.893-7.285 1.812-14.568 2.735-21.849.451-3.563.946-7.119 1.677-10.637 1.317-6.357 3.333-12.502 5.642-18.556a124.631 124.631 0 0 0 1.915-5.35c1.91-5.786 4.172-11.416 7.254-16.694.087-.146.269-.294.079-.604-.739.793-1.47 1.536-2.007 2.461-1.885 3.241-3.827 6.45-5.661 9.718a132.806 132.806 0 0 0-8.298 17.791c-1.698 4.466-3.174 9.005-4.5 13.591-1.249 4.321-2.343 8.681-3.342 13.066-.55 2.422-1.197 4.823-1.857 7.215-.356 1.291-.812 2.556-1.263 3.817-.292.813-.658 1.603-.998 2.4-.056.13-.13.305-.337.167.204-3.666.5-6.571 1.353-10.78 1.098-5.412 2.233-10.815 3.71-16.139a160.248 160.248 0 0 1 11.365-29.434c.532-1.054 1.054-2.109 1.583-3.165l-.008-.005zm73.226-38.244c.129.302.149.471.245.55.242.202.501.391.779.535 1.889.98 3.755 2.018 5.688 2.905 2.618 1.199 5.28 2.307 7.943 3.404 4.342 1.788 8.715 3.507 12.927 5.592 2.933 1.455 5.875 2.898 8.767 4.43 3.451 1.825 6.859 3.731 10.274 5.626 2.07 1.148 4.162 2.268 6.162 3.528 3.009 1.9 5.771 4.144 8.339 6.608 1.906 1.83 4.105 3.195 6.526 4.21 2.297.962 4.545 2.013 6.673 3.312.301.184.628.334.949.486 2.779 1.319 5.556 2.651 8.344 3.946 1.97.915 3.965 1.772 6.083 2.294a21.99 21.99 0 0 0 9.974.159c2.045-.435 4.081-.915 6.174-1.085.116-.008.267.003.341-.061.475-.414 1.04-.318 1.581-.284a39.95 39.95 0 0 1 5.392.699c.343.069.68.196 1.001.345.114.054.253.275.222.368-.055.159-.229.385-.358.39-.549.02-1.102-.005-1.648-.069-.782-.092-1.557-.261-2.34-.347-1.069-.12-1.999.166-2.751.994-.556.612-1.174 1.177-1.992 1.438-2.56.819-5.146 1.501-7.841 1.74-2.321.208-4.576-.037-6.754-.851-1.624-.608-3.226-1.281-4.824-1.959-3.087-1.31-6.171-2.631-9.245-3.971-1.88-.82-3.755-1.655-5.612-2.527-1.93-.907-3.807-1.912-5.567-3.131-3.826-2.648-7.647-5.304-11.585-7.789-3.134-1.979-6.273-3.955-9.451-5.867-3.211-1.93-6.488-3.751-9.704-5.67-2.337-1.394-4.652-2.818-7.122-3.974-1.18-.552-2.35-1.122-3.529-1.671a588.008 588.008 0 0 0-5.161-2.375c-.153-.069-.336-.238-.568.054.354.245.693.494 1.049.718 4.137 2.612 8.287 5.207 12.414 7.835 4.624 2.946 9.26 5.879 13.83 8.905 5.26 3.483 10.314 7.269 15.677 10.602 3.519 2.187 7.001 4.43 10.483 6.671a75.36 75.36 0 0 1 6.876 5.015c.106.087.283.163.084.379-.13-.038-.286-.059-.422-.124-2.173-1.032-4.389-1.977-6.452-3.227-3.674-2.228-7.352-4.452-11.003-6.72-4.181-2.598-8.333-5.244-12.501-7.866-2.87-1.804-5.742-3.607-8.62-5.399-.157-.097-.344-.346-.614-.086.176.146.322.277.478.397 3.552 2.761 7.112 5.511 10.659 8.28 4.263 3.327 8.512 6.671 13 9.696a213.115 213.115 0 0 0 6.561 4.214c1.537.956 3.142 1.806 4.68 2.758 1.741 1.079 3.446 2.22 5.16 3.342.034.023.016.127.028.259-.243-.079-.464-.138-.676-.219-.848-.325-1.691-.659-2.54-.985-4.279-1.647-8.404-3.628-12.409-5.852-3.935-2.185-7.727-4.606-11.401-7.205-6.541-4.629-12.964-9.413-19.191-14.457-5.519-4.471-11.225-8.705-16.904-12.971-3.281-2.465-6.535-4.962-9.608-7.689-1.383-1.226-2.8-2.428-4.457-3.292-1.155-.601-2.291-1.239-3.449-1.833a7.057 7.057 0 0 0-1.213-.464c-.245-.071-.467.021-.514.322.015.04.016.095.042.113 1.473 1.049 2.891 2.195 4.443 3.115a29.875 29.875 0 0 1 4.767 3.478c1.907 1.714 3.804 3.438 5.709 5.158 1.989 1.8 4.008 3.568 5.962 5.407 6.466 6.081 12.931 12.163 19.351 18.291 3.77 3.595 7.632 7.085 11.544 10.521 3.082 2.708 6.202 5.37 9.448 7.882 3.813 2.952 7.792 5.661 12.084 7.868 2.911 1.497 5.857 2.929 8.806 4.353a252.13 252.13 0 0 0 11.652 5.258c2.763 1.166 5.536 2.313 8.273 3.537 4.76 2.131 9.318 4.651 13.829 7.257 3.886 2.245 7.312 5.077 10.463 8.254.111.111.219.229.345.322.803.591 1.592.45 2.112-.389.125-.198.235-.417.294-.644.504-1.962.84-3.935.431-5.968-.124-.613-.181-1.245-.221-1.872-.034-.563-.246-.973-.754-1.243a22.827 22.827 0 0 1-1.548-.873c-3.629-2.271-7.52-4.009-11.476-5.592-2.635-1.054-5.334-1.957-8.016-2.887-2.096-.728-4.07-1.708-6.031-2.723-.159-.081-.366-.167-.319-.448.111-.006.222-.032.329-.015 1.631.269 3.279.475 4.893.83 2.971.654 5.85 1.64 8.709 2.661 3.764 1.341 7.358 3.06 10.712 5.244.958.624 1.868 1.319 2.809 1.969.675.467 1.118.389 1.625-.237.316-.385.455-.827.447-1.316-.009-.565-.179-1.085-.461-1.573-.54-.938-1.266-1.709-2.097-2.39-1.917-1.566-4.075-2.695-6.408-3.498-3.06-1.051-6.131-2.074-9.182-3.144-1.525-.535-3.025-1.146-4.532-1.736-.346-.135-.729-.241-1.04-.619.199-.031.306-.073.408-.06 1.095.144 2.199.232 3.275.46 3.554.744 7.07 1.639 10.538 2.716 2.204.682 4.269 1.642 6.029 3.178.683.596 1.387 1.167 2.083 1.747.306.255.538.285.864.099.24-.136.463-.296.702-.435.738-.422 1.043-1.1.955-1.893-.141-1.294-.658-2.43-1.742-3.232-1.084-.801-2.276-1.415-3.496-1.978-1.648-.757-3.305-1.496-4.955-2.253-.154-.071-.281-.205-.645-.478.583.05.889.048 1.183.107 1.399.282 2.742.743 4.042 1.323 1.406.627 2.804 1.271 4.193 1.931.471.225.894.258 1.341-.031.164-.108.354-.175.523-.274 1.163-.678 1.63-2.048 1.1-3.271-.203-.47-.439-.928-.704-1.365-.112-.186-.322-.335-.52-.44-.205-.107-.451-.134-.677-.209-1.91-.626-3.822-1.249-5.731-1.885a6.784 6.784 0 0 1-.868-.378c-.131-.064-.306-.141-.157-.411 1.107.134 2.217.346 3.313.67 1.136.335 2.28.637 3.424.932.419.109.851.194 1.282.218 1.213.07 2.01-1.097 1.502-2.16-.239-.504-.594-.804-1.118-.97a151.142 151.142 0 0 1-3.597-1.183c-.182-.062-.5-.029-.464-.439.249.047.479.085.703.137 1.076.247 2.148.511 3.229.748a5.89 5.89 0 0 0 1.171.159c.636.014 1.139-.405 1.289-1.012.142-.571-.082-1.008-.723-1.321a6.92 6.92 0 0 0-1.104-.422c-1.252-.359-2.508-.702-3.763-1.045a3013.74 3013.74 0 0 1-7.188-1.977c-.163-.045-.309-.149-.463-.226.219-.159.406-.19.582-.163.857.135 1.725.236 2.564.449 1.644.415 3.273.889 4.903 1.357 1.519.436 3.045.802 4.635.911 2.364.164 3.916-2.427 3.496-4.347-.099-.452-.329-.805-.784-.961-.671-.23-1.335-.494-2.022-.661-3.102-.765-6.215-1.497-9.32-2.251-2-.485-3.939-1.15-5.757-2.127-.18-.095-.47-.124-.462-.519.424-.01.85-.045 1.274-.024 1.501.076 2.988.275 4.444.654 2.406.625 4.805 1.267 7.204 1.915 1.789.485 3.61.859 5.329 1.579.071.03.151.044.226.069.386.126.718.027.936-.303.359-.551.878-.893 1.432-1.21.416-.238.75-.576.976-1.006.484-.925.089-1.984-.89-2.313-.445-.149-.919-.224-1.382-.324-.655-.141-1.315-.255-1.967-.414-3.181-.773-6.358-1.568-9.54-2.331-5.456-1.307-10.804-2.974-16.055-4.947-.743-.279-1.49-.51-2.269-.639-1.48-.243-2.957-.493-4.441-.699-3.715-.517-7.414-1.123-11-2.241a344.873 344.873 0 0 1-10.339-3.397 56.5 56.5 0 0 1-6.12-2.537 172.93 172.93 0 0 0-5.794-2.701c-1.768-.78-3.542-1.572-5.375-2.18-2.064-.683-4.064-1.518-6.095-2.277-2.661-.995-5.309-2.026-7.992-2.959-2.76-.96-5.477-2.009-8.169-3.152a856.467 856.467 0 0 0-17.188-7.074 128.9 128.9 0 0 0-11.53-3.961c-1.477-.434-2.961-.836-4.444-1.249-.19-.053-.383-.107-.578-.119-.205-.014-.429-.215-.679.074.412.199.793.391 1.181.569 3.339 1.519 6.683 3.034 10.023 4.556 3.772 1.72 7.627 3.241 11.519 4.666 2.224.813 4.468 1.571 6.683 2.409 4.28 1.623 8.472 3.44 12.521 5.592a148.495 148.495 0 0 1 7.099 4.014c4.902 2.96 9.608 6.208 14.249 9.559 3.681 2.654 7.381 5.277 11.065 7.924.75.539 1.551.903 2.469 1.069 1.55.282 3.092.62 4.635.945 1.775.375 3.54.798 5.321 1.134 2.067.387 4.084.231 5.989-.755.279-.145.571-.269.864-.385a1.96 1.96 0 0 1 .453-.117c.064-.008.181.039.197.088.031.097.054.265.002.306-.276.213-.561.433-.874.581-3.273 1.551-6.698 2.086-10.262 1.376a57.528 57.528 0 0 1-5.277-1.331c-1.894-.569-3.686-1.42-5.383-2.433-1.32-.788-2.565-1.698-3.836-2.565-5.051-3.446-10.098-6.896-15.297-10.115-3.996-2.473-8.138-4.677-12.315-6.821-2.632-1.35-5.31-2.612-7.958-3.932-2.548-1.27-5.179-2.323-7.878-3.225-2.319-.778-4.633-1.583-6.894-2.511-5.113-2.096-10.199-4.256-15.278-6.428-2.066-.884-4.096-1.857-6.132-2.813-1.314-.617-2.601-1.299-4.264-1.703l.004.01zm-15.595.549c-.132-.029-.21-.073-.27-.055-1.216.355-2.249.015-3.162-.81-.737-.665-1.339-1.441-1.876-2.273-1.287-1.999-2.313-4.128-3.208-6.321-2.074-5.083-3.803-10.285-5.239-15.582-.801-2.953-1.123-5.964-.785-9.025.11-.986.157-1.982.968-2.71.028-.024.037-.069.053-.105.088-.203.056-.399-.11-.535a2.065 2.065 0 0 0-.505-.301c-1.434-.605-2.927-.938-4.486-.933-.682.003-1.324.134-1.929.48-.375.213-.78.385-1.191.518-2.61.844-4.998 2.147-7.353 3.519a60.58 60.58 0 0 1-9.507 4.495 22.537 22.537 0 0 1-7.517 1.418 32.076 32.076 0 0 0-3.42.245c-1.5.191-2.902.705-4.215 1.473-.688.403-1.13.924-1.363 1.693-.431 1.429-.47 1.455.904 2.017 1.641.67 2.883 1.787 3.761 3.287a32.412 32.412 0 0 1 1.72 3.367c1.346 3.075 2.409 6.256 3.493 9.43 1.02 2.987 2.03 5.976 3.116 8.939.966 2.629 2.024 5.222 3.053 7.828.803 2.033 1.339 4.121 1.407 6.32.018.585.156 1.169.293 1.741.047.195.262.35.428.559 1.018-.669 2.303-.824 2.864-2.036 1.346.191 2.639.158 3.921-.161 2.804-.703 5.163-2.156 7.048-4.329.979-1.131 1.82-2.381 2.729-3.571.283-.368.244-.73.022-1.098-.081-.136-.175-.263-.266-.389-1.17-1.592-2.171-3.289-3.121-5.017-.61-1.106-1.221-2.212-1.773-3.346-.567-1.169-1.141-2.347-1.571-3.568-.522-1.487-.918-3.018-1.325-4.541-.489-1.828-.95-3.663-1.387-5.503-.32-1.34-.587-2.695-.861-4.044-.058-.281-.111-.584.083-.994.165.273.29.422.357.591.475 1.213.947 2.424 1.402 3.643.431 1.144.798 2.315 1.273 3.44.398.941.886 1.847 1.384 2.743.402.72.855 1.415 1.326 2.092.629.908 1.352 1.753 1.935 2.688.938 1.505 1.783 3.067 2.688 4.596.863 1.46 1.735 2.914 2.63 4.354.608.979 1.356 1.839 2.299 2.52 1.114.805 2.302 1.368 3.727 1.233.313-.032.633-.008.947-.031 1.669-.124 3.29-.463 4.765-1.272 2.612-1.431 4.505-3.544 5.746-6.244.061-.133.069-.285.1-.43l-.002-.005zm-79.84 46.427c-.128.066-.26.128-.385.204-1.782 1.091-3.533 2.232-5.346 3.267a542.027 542.027 0 0 1-9.511 5.297c-3.326 1.814-6.792 3.351-10.11 5.176-2.037 1.12-4.081 2.231-6.155 3.283-2.217 1.124-4.444 2.232-6.71 3.245-4.363 1.948-8.85 3.572-13.406 5.014a119.949 119.949 0 0 1-7.165 2.04c-2.756.687-5.548 1.194-8.347 1.679a69.309 69.309 0 0 1-15.795.9 580.73 580.73 0 0 0-7.803-.378c-1.536-.066-3.073-.103-4.6.198-.38.076-.785.052-1.178.054a24.587 24.587 0 0 0-4.82.497c-1.273.26-2.55.52-3.817.813-1.432.33-2.785.889-4.035 1.656-.807.494-1.546 1.103-1.991 1.978-.541 1.067-.588 2.179-.362 3.342.365 1.869 1.33 3.465 2.327 5.018 1.46 2.271 3.387 4.153 5.433 5.896.742.632 1.604 1.159 2.48 1.598a27.165 27.165 0 0 0 3.485 1.469c3.388 1.145 6.9 1.659 10.457 1.879 4.832.3 9.616.012 14.343-1.106 3.422-.809 6.78-1.842 10.083-3.03 4.944-1.778 9.741-3.891 14.315-6.499a121.293 121.293 0 0 0 10.17-6.489c6.304-4.476 12.377-9.258 18.358-14.16 2.227-1.823 4.43-3.673 6.666-5.481 2.508-2.024 5.069-3.981 7.552-6.033 1.394-1.151 2.682-2.434 4.003-3.667.116-.107.148-.305.231-.491-.492-.064-.734.186-1.008.422-1.8 1.525-3.586 3.065-5.425 4.538-1.809 1.444-3.636 2.873-5.53 4.207-3.936 2.768-7.935 5.447-11.881 8.2-4.66 3.25-9.307 6.513-13.927 9.816-3.762 2.688-7.607 5.229-11.738 7.319-5.93 3.002-12.061 5.49-18.438 7.38-5.82 1.725-11.753 2.315-17.793 1.86-3.515-.265-6.973-.853-10.317-1.993-2.065-.704-4.024-1.624-5.817-2.877a14.614 14.614 0 0 1-3.664-3.66 4.211 4.211 0 0 1-.727-1.974 11.75 11.75 0 0 1-.058-1.298c-.008-1.375.485-2.537 1.481-3.491a10.327 10.327 0 0 1 2.284-1.674c1.13-.605 2.304-1.008 3.63-.787.54.089 1.103.037 1.656.071 2.008.125 4.028.153 6.018.426a28.08 28.08 0 0 0 4.69.244c4.225-.121 8.431-.403 12.62-.972 7.6-1.031 15.062-2.711 22.45-4.719 2.36-.642 4.698-1.368 7.025-2.121 6.017-1.949 11.85-4.359 17.446-7.312 3.1-1.637 6.13-3.415 9.177-5.151 1.678-.957 3.328-1.966 4.992-2.949 1.73-1.024 3.487-2.008 5.187-3.08 2.907-1.84 5.538-4.048 8.151-6.274.442-.377.873-.768 1.166-1.315l-.017-.005zm119.89-49.555l-.061.191c1.001.354 2.002.72 3.008 1.06 5.871 1.983 11.705 4.073 17.421 6.475 2.291.964 4.555 1.99 6.816 3.024 1.972.902 3.92 1.856 5.882 2.781 1.354.637 2.716 1.262 4.079 1.884 2.366 1.08 4.712 2.219 7.114 3.21 2.772 1.145 5.6 2.147 8.398 3.228 3.757 1.45 7.597 2.653 11.421 3.907 2.099.688 4.205 1.356 6.302 2.053 2.247.746 4.489 1.507 6.727 2.274 5.34 1.825 10.679 3.644 16.011 5.491a133.91 133.91 0 0 0 9.274 2.855c2.859.764 5.72 1.519 8.573 2.303.796.221 1.569.528 2.348.815.254.093.529.199.563.63-.141.063-.31.188-.48.193-.311.01-.627-.039-.938-.087-4.918-.787-9.776-1.852-14.477-3.501-5.473-1.918-10.898-3.98-16.338-5.991-1.513-.561-2.989-1.234-4.521-1.737-1.835-.602-3.714-1.073-5.571-1.606-3.3-.947-6.601-1.891-9.895-2.859-3.485-1.022-6.949-2.104-10.362-3.345-3.114-1.133-6.242-2.239-9.328-3.441-2.352-.917-4.651-1.969-6.974-2.96-2.252-.959-4.503-1.918-6.755-2.874-6.074-2.575-12.271-4.813-18.555-6.813-7.222-2.295-14.511-4.37-21.658-6.9-.205-.072-.424-.106-.764-.188.292.375.579.606.675.902.108.325.299.441.572.51.343.089.691.162 1.035.239 2.623.601 5.156 1.493 7.666 2.436 5.282 1.985 10.546 4.02 15.804 6.068 5.664 2.207 11.349 4.351 17.1 6.32 2.538.869 5.078 1.735 7.527 2.851 4.669 2.127 9.345 4.233 14.014 6.36 3.918 1.787 7.915 3.364 12.041 4.606 3.475 1.048 6.97 2.019 10.548 2.662 1.513.272 3.031.527 4.528.873 2.115.491 4.188 1.142 6.162 2.067 1.213.568 2.404 1.191 3.605 1.786.993.492 2.033.828 3.117 1.093 2.105.519 4.279.728 6.341 1.432.037.013.077.016.116.024 4.794 1.152 9.599 2.261 14.274 3.854.785.267 1.566.541 2.349.811.376.13.765.263 1.149.063.627-.329 1.258-.656 1.854-1.041 1.036-.669 1.167-1.81.325-2.725a3.71 3.71 0 0 0-.816-.679 17.497 17.497 0 0 0-1.779-.933c-2.393-1.05-4.913-1.714-7.437-2.342-3.906-.972-7.826-1.883-11.731-2.858a114.64 114.64 0 0 1-5.475-1.514c-1.924-.586-3.818-1.266-5.737-1.874-3.312-1.047-6.637-2.044-9.944-3.105-3.306-1.062-6.592-2.176-9.892-3.26-2.961-.973-5.943-1.884-8.883-2.916-4.737-1.664-9.278-3.787-13.72-6.12-4.057-2.131-8.192-4.081-12.459-5.754-4.409-1.729-8.757-3.608-13.219-5.199a124.247 124.247 0 0 0-15.472-4.418c-.498-.109-1.002-.193-1.504-.291h.006zm24.254-23.153c.149-.002.3.024.441-.006 3.392-.728 6.73-1.674 10.07-2.601 2.241-.625 4.483-1.261 6.754-1.764 3.041-.677 6.101-1.263 9.162-1.829 3.605-.668 7.212-1.349 10.838-1.892 6.012-.899 12.062-1.43 18.129-1.8 2.836-.174 5.658-.508 8.447-1.061 1.899-.376 3.781-.831 5.541-1.661 1.107-.525 2.171-1.13 2.954-2.118.119-.152.25-.31.039-.49-.639.197-1.269.428-1.914.586-1.413.352-2.832.68-4.252 1.003-3.509.798-7.072 1.246-10.655 1.49-5.946.406-11.873.952-17.775 1.785-4.297.606-8.564 1.381-12.762 2.5-2.744.732-5.493 1.442-8.23 2.197-1.746.483-3.478 1.026-5.214 1.551-1.058.319-2.112.645-3.161.984a419.095 419.095 0 0 0-4.716 1.554c-.859.286-1.712.599-2.569.896-.404.142-.836.228-1.128.68l.001-.004zM59.493 212.969a2.767 2.767 0 0 1-.062-.145c-1.152.4-2.305.794-3.454 1.203-.22.077-.422.211-.63.324-1.03.575-2.053 1.162-3.092 1.727-1.036.563-2.095 1.088-3.128 1.658-1.863 1.028-3.7 2.1-5.57 3.113-1.871 1.015-3.745 2.024-5.657 2.96a189.005 189.005 0 0 1-7.187 3.349c-1.731.759-3.527 1.374-5.286 2.076-3.351 1.337-6.812 2.236-10.38 2.753-3.636.525-7.299.65-10.965.7-2.768.039-5.52-.172-8.242-.7-1.517-.293-2.986-.74-4.374-1.432-1.772-.886-3.227-2.115-4.182-3.882-.07-.129-.176-.237-.35-.463-.056.261-.15.429-.105.537.18.431.338.898.624 1.258 1.6 2.007 3.536 3.583 5.968 4.508a26.856 26.856 0 0 0 9.25 1.777c4.067.057 8.121-.146 12.157-.673 2.821-.369 5.578-1.047 8.27-1.971a75.762 75.762 0 0 0 4.431-1.655c2.33-.968 4.635-2 6.95-3.004.036-.016.07-.037.103-.055 1.792-.911 3.586-1.818 5.372-2.736 1.157-.594 2.31-1.198 3.452-1.817.796-.43 1.577-.892 2.362-1.343.99-.57 1.974-1.145 2.964-1.714.853-.491 1.719-.958 2.566-1.461 1.457-.864 2.896-1.756 4.348-2.624 1.277-.764 2.56-1.514 3.844-2.269l.003.001zm-20.225 6.618c-.03-.066-.062-.127-.092-.193-.967.325-1.935.648-2.899.981-2.457.846-4.917 1.693-7.372 2.55-.707.248-1.392.559-2.098.803-1.86.644-3.722 1.295-5.598 1.894a116.44 116.44 0 0 1-5.32 1.581c-2.21.589-4.47.927-6.73 1.271-4.573.699-9.11.72-13.6-.559-.09-.024-.2.028-.47.072.45.238.748.421 1.064.56 1.122.496 2.291.865 3.498 1.066 3.954.66 7.916.755 11.89.135 3.717-.58 7.286-1.694 10.815-2.953a180.25 180.25 0 0 0 5.967-2.271 150.182 150.182 0 0 0 10.708-4.73c.091-.043.156-.139.236-.21l.001.003zM303.964 95.692c-.761-.143-1.367-.057-1.98.102-1.947.502-3.9.975-5.901 1.212-3.485.413-6.965.871-10.456 1.243-3.18.34-6.332.791-9.423 1.616-.246.065-.473.196-.709.295.249.114.479.14.705.109 3.122-.427 6.255-.765 9.401-.995 3.42-.25 6.844-.488 10.242-.997 2.072-.31 4.115-.74 6.108-1.385a11.838 11.838 0 0 0 1.532-.624c.172-.085.276-.316.488-.573l-.007-.003zM20.004 222.744c-.007-.067-.015-.137-.019-.205-.22.004-.439-.009-.656.015-1.763.201-3.484.631-5.216 1.009-3.05.663-6.132 1.081-9.253 1.131-3.133.049-6.222-.227-9.192-1.327-.064-.025-.148.01-.224.015-.137.151-.087.278.065.376.864.57 1.814.947 2.8 1.246 1.668.51 3.38.763 5.119.853 5.078.261 9.95-.767 14.734-2.34.631-.208 1.23-.515 1.844-.774l-.002.001z" fill="#0C1A23"/></svg>